<?xml version="1.0" encoding="utf-8" standalone="no"?>
<!DOCTYPE svg PUBLIC "-//W3C//DTD SVG 1.1//EN"
  "http://www.w3.org/Graphics/SVG/1.1/DTD/svg11.dtd">
<!-- Created with matplotlib (https://matplotlib.org/) -->
<svg height="432pt" version="1.1" viewBox="0 0 518.7 432" width="518.7pt" xmlns="http://www.w3.org/2000/svg" xmlns:xlink="http://www.w3.org/1999/xlink">
 <metadata>
  <rdf:RDF xmlns:cc="http://creativecommons.org/ns#" xmlns:dc="http://purl.org/dc/elements/1.1/" xmlns:rdf="http://www.w3.org/1999/02/22-rdf-syntax-ns#">
   <cc:Work>
    <dc:type rdf:resource="http://purl.org/dc/dcmitype/StillImage"/>
    <dc:date>2021-02-22T13:35:17.349461</dc:date>
    <dc:format>image/svg+xml</dc:format>
    <dc:creator>
     <cc:Agent>
      <dc:title>Matplotlib v3.3.3, https://matplotlib.org/</dc:title>
     </cc:Agent>
    </dc:creator>
   </cc:Work>
  </rdf:RDF>
 </metadata>
 <defs>
  <style type="text/css">*{stroke-linecap:butt;stroke-linejoin:round;}</style>
 </defs>
 <g id="figure_1">
  <g id="patch_1">
   <path d="M 0 432 
L 518.7 432 
L 518.7 0 
L 0 0 
z
" style="fill:#ffffff;"/>
  </g>
  <g id="axes_1">
   <g id="patch_2">
    <path d="M 105.90125 388.8 
L 412.79875 388.8 
L 412.79875 43.2 
L 105.90125 43.2 
z
" style="fill:#ffffff;"/>
   </g>
   <g id="patch_3">
    <path clip-path="url(#p9b9547e624)" d="M 242.51599 385.378218 
L 119.851136 385.378218 
L 119.851136 371.691089 
L 242.51599 371.691089 
z
" style="fill:#ff7f00;opacity:0.5;"/>
   </g>
   <g id="patch_4">
    <path clip-path="url(#p9b9547e624)" d="M 242.51599 368.269307 
L 140.549321 368.269307 
L 140.549321 354.582178 
L 242.51599 354.582178 
z
" style="fill:#ff7f00;opacity:0.5;"/>
   </g>
   <g id="patch_5">
    <path clip-path="url(#p9b9547e624)" d="M 242.51599 351.160396 
L 151.646986 351.160396 
L 151.646986 337.473267 
L 242.51599 337.473267 
z
" style="fill:#ff7f00;opacity:0.5;"/>
   </g>
   <g id="patch_6">
    <path clip-path="url(#p9b9547e624)" d="M 242.51599 334.051485 
L 157.66135 334.051485 
L 157.66135 320.364356 
L 242.51599 320.364356 
z
" style="fill:#ff7f00;opacity:0.5;"/>
   </g>
   <g id="patch_7">
    <path clip-path="url(#p9b9547e624)" d="M 242.51599 316.942574 
L 165.893407 316.942574 
L 165.893407 303.255446 
L 242.51599 303.255446 
z
" style="fill:#ff7f00;opacity:0.5;"/>
   </g>
   <g id="patch_8">
    <path clip-path="url(#p9b9547e624)" d="M 242.51599 299.833663 
L 171.932691 299.833663 
L 171.932691 286.146535 
L 242.51599 286.146535 
z
" style="fill:#ff7f00;opacity:0.5;"/>
   </g>
   <g id="patch_9">
    <path clip-path="url(#p9b9547e624)" d="M 242.51599 282.724752 
L 192.234848 282.724752 
L 192.234848 269.037624 
L 242.51599 269.037624 
z
" style="fill:#ff7f00;opacity:0.5;"/>
   </g>
   <g id="patch_10">
    <path clip-path="url(#p9b9547e624)" d="M 242.51599 265.615842 
L 198.168127 265.615842 
L 198.168127 251.928713 
L 242.51599 251.928713 
z
" style="fill:#ff7f00;opacity:0.5;"/>
   </g>
   <g id="patch_11">
    <path clip-path="url(#p9b9547e624)" d="M 242.51599 248.506931 
L 200.904811 248.506931 
L 200.904811 234.819802 
L 242.51599 234.819802 
z
" style="fill:#ff7f00;opacity:0.5;"/>
   </g>
   <g id="patch_12">
    <path clip-path="url(#p9b9547e624)" d="M 242.51599 231.39802 
L 204.873562 231.39802 
L 204.873562 217.710891 
L 242.51599 217.710891 
z
" style="fill:#ff7f00;opacity:0.5;"/>
   </g>
   <g id="patch_13">
    <path clip-path="url(#p9b9547e624)" d="M 242.51599 214.289109 
L 208.824566 214.289109 
L 208.824566 200.60198 
L 242.51599 200.60198 
z
" style="fill:#ff7f00;opacity:0.5;"/>
   </g>
   <g id="patch_14">
    <path clip-path="url(#p9b9547e624)" d="M 242.51599 197.180198 
L 278.276884 197.180198 
L 278.276884 183.493069 
L 242.51599 183.493069 
z
" style="fill:#33a02c;opacity:0.5;"/>
   </g>
   <g id="patch_15">
    <path clip-path="url(#p9b9547e624)" d="M 242.51599 180.071287 
L 281.704198 180.071287 
L 281.704198 166.384158 
L 242.51599 166.384158 
z
" style="fill:#33a02c;opacity:0.5;"/>
   </g>
   <g id="patch_16">
    <path clip-path="url(#p9b9547e624)" d="M 242.51599 162.962376 
L 285.63259 162.962376 
L 285.63259 149.275248 
L 242.51599 149.275248 
z
" style="fill:#33a02c;opacity:0.5;"/>
   </g>
   <g id="patch_17">
    <path clip-path="url(#p9b9547e624)" d="M 242.51599 145.853465 
L 288.823848 145.853465 
L 288.823848 132.166337 
L 242.51599 132.166337 
z
" style="fill:#33a02c;opacity:0.5;"/>
   </g>
   <g id="patch_18">
    <path clip-path="url(#p9b9547e624)" d="M 242.51599 128.744554 
L 291.80498 128.744554 
L 291.80498 115.057426 
L 242.51599 115.057426 
z
" style="fill:#33a02c;opacity:0.5;"/>
   </g>
   <g id="patch_19">
    <path clip-path="url(#p9b9547e624)" d="M 242.51599 111.635644 
L 292.344279 111.635644 
L 292.344279 97.948515 
L 242.51599 97.948515 
z
" style="fill:#33a02c;opacity:0.5;"/>
   </g>
   <g id="patch_20">
    <path clip-path="url(#p9b9547e624)" d="M 242.51599 94.526733 
L 316.093464 94.526733 
L 316.093464 80.839604 
L 242.51599 80.839604 
z
" style="fill:#33a02c;opacity:0.5;"/>
   </g>
   <g id="patch_21">
    <path clip-path="url(#p9b9547e624)" d="M 242.51599 77.417822 
L 334.710358 77.417822 
L 334.710358 63.730693 
L 242.51599 63.730693 
z
" style="fill:#33a02c;opacity:0.5;"/>
   </g>
   <g id="patch_22">
    <path clip-path="url(#p9b9547e624)" d="M 242.51599 60.308911 
L 398.848864 60.308911 
L 398.848864 46.621782 
L 242.51599 46.621782 
z
" style="fill:#33a02c;opacity:0.5;"/>
   </g>
   <g id="matplotlib.axis_1">
    <g id="xtick_1">
     <g id="line2d_1">
      <defs>
       <path d="M 0 0 
L 0 3.5 
" id="m8eae3684c7" style="stroke:#000000;stroke-width:0.8;"/>
      </defs>
      <g>
       <use style="stroke:#000000;stroke-width:0.8;" x="135.79774" xlink:href="#m8eae3684c7" y="388.8"/>
      </g>
     </g>
     <g id="text_1">
      <!-- −0.4 -->
      <g transform="translate(121.228052 404.918125)scale(0.12 -0.12)">
       <defs>
        <path d="M 10.59375 35.5 
L 73.1875 35.5 
L 73.1875 27.203125 
L 10.59375 27.203125 
z
" id="DejaVuSans-8722"/>
        <path d="M 31.78125 66.40625 
Q 24.171875 66.40625 20.328125 58.90625 
Q 16.5 51.421875 16.5 36.375 
Q 16.5 21.390625 20.328125 13.890625 
Q 24.171875 6.390625 31.78125 6.390625 
Q 39.453125 6.390625 43.28125 13.890625 
Q 47.125 21.390625 47.125 36.375 
Q 47.125 51.421875 43.28125 58.90625 
Q 39.453125 66.40625 31.78125 66.40625 
z
M 31.78125 74.21875 
Q 44.046875 74.21875 50.515625 64.515625 
Q 56.984375 54.828125 56.984375 36.375 
Q 56.984375 17.96875 50.515625 8.265625 
Q 44.046875 -1.421875 31.78125 -1.421875 
Q 19.53125 -1.421875 13.0625 8.265625 
Q 6.59375 17.96875 6.59375 36.375 
Q 6.59375 54.828125 13.0625 64.515625 
Q 19.53125 74.21875 31.78125 74.21875 
z
" id="DejaVuSans-48"/>
        <path d="M 10.6875 12.40625 
L 21 12.40625 
L 21 0 
L 10.6875 0 
z
" id="DejaVuSans-46"/>
        <path d="M 37.796875 64.3125 
L 12.890625 25.390625 
L 37.796875 25.390625 
z
M 35.203125 72.90625 
L 47.609375 72.90625 
L 47.609375 25.390625 
L 58.015625 25.390625 
L 58.015625 17.1875 
L 47.609375 17.1875 
L 47.609375 0 
L 37.796875 0 
L 37.796875 17.1875 
L 4.890625 17.1875 
L 4.890625 26.703125 
z
" id="DejaVuSans-52"/>
       </defs>
       <use xlink:href="#DejaVuSans-8722"/>
       <use x="83.789062" xlink:href="#DejaVuSans-48"/>
       <use x="147.412109" xlink:href="#DejaVuSans-46"/>
       <use x="179.199219" xlink:href="#DejaVuSans-52"/>
      </g>
     </g>
    </g>
    <g id="xtick_2">
     <g id="line2d_2">
      <g>
       <use style="stroke:#000000;stroke-width:0.8;" x="189.156865" xlink:href="#m8eae3684c7" y="388.8"/>
      </g>
     </g>
     <g id="text_2">
      <!-- −0.2 -->
      <g transform="translate(174.587177 404.918125)scale(0.12 -0.12)">
       <defs>
        <path d="M 19.1875 8.296875 
L 53.609375 8.296875 
L 53.609375 0 
L 7.328125 0 
L 7.328125 8.296875 
Q 12.9375 14.109375 22.625 23.890625 
Q 32.328125 33.6875 34.8125 36.53125 
Q 39.546875 41.84375 41.421875 45.53125 
Q 43.3125 49.21875 43.3125 52.78125 
Q 43.3125 58.59375 39.234375 62.25 
Q 35.15625 65.921875 28.609375 65.921875 
Q 23.96875 65.921875 18.8125 64.3125 
Q 13.671875 62.703125 7.8125 59.421875 
L 7.8125 69.390625 
Q 13.765625 71.78125 18.9375 73 
Q 24.125 74.21875 28.421875 74.21875 
Q 39.75 74.21875 46.484375 68.546875 
Q 53.21875 62.890625 53.21875 53.421875 
Q 53.21875 48.921875 51.53125 44.890625 
Q 49.859375 40.875 45.40625 35.40625 
Q 44.1875 33.984375 37.640625 27.21875 
Q 31.109375 20.453125 19.1875 8.296875 
z
" id="DejaVuSans-50"/>
       </defs>
       <use xlink:href="#DejaVuSans-8722"/>
       <use x="83.789062" xlink:href="#DejaVuSans-48"/>
       <use x="147.412109" xlink:href="#DejaVuSans-46"/>
       <use x="179.199219" xlink:href="#DejaVuSans-50"/>
      </g>
     </g>
    </g>
    <g id="xtick_3">
     <g id="line2d_3">
      <g>
       <use style="stroke:#000000;stroke-width:0.8;" x="242.51599" xlink:href="#m8eae3684c7" y="388.8"/>
      </g>
     </g>
     <g id="text_3">
      <!-- 0.0 -->
      <g transform="translate(232.974115 404.918125)scale(0.12 -0.12)">
       <use xlink:href="#DejaVuSans-48"/>
       <use x="63.623047" xlink:href="#DejaVuSans-46"/>
       <use x="95.410156" xlink:href="#DejaVuSans-48"/>
      </g>
     </g>
    </g>
    <g id="xtick_4">
     <g id="line2d_4">
      <g>
       <use style="stroke:#000000;stroke-width:0.8;" x="295.875114" xlink:href="#m8eae3684c7" y="388.8"/>
      </g>
     </g>
     <g id="text_4">
      <!-- 0.2 -->
      <g transform="translate(286.333239 404.918125)scale(0.12 -0.12)">
       <use xlink:href="#DejaVuSans-48"/>
       <use x="63.623047" xlink:href="#DejaVuSans-46"/>
       <use x="95.410156" xlink:href="#DejaVuSans-50"/>
      </g>
     </g>
    </g>
    <g id="xtick_5">
     <g id="line2d_5">
      <g>
       <use style="stroke:#000000;stroke-width:0.8;" x="349.234239" xlink:href="#m8eae3684c7" y="388.8"/>
      </g>
     </g>
     <g id="text_5">
      <!-- 0.4 -->
      <g transform="translate(339.692364 404.918125)scale(0.12 -0.12)">
       <use xlink:href="#DejaVuSans-48"/>
       <use x="63.623047" xlink:href="#DejaVuSans-46"/>
       <use x="95.410156" xlink:href="#DejaVuSans-52"/>
      </g>
     </g>
    </g>
    <g id="xtick_6">
     <g id="line2d_6">
      <g>
       <use style="stroke:#000000;stroke-width:0.8;" x="402.593364" xlink:href="#m8eae3684c7" y="388.8"/>
      </g>
     </g>
     <g id="text_6">
      <!-- 0.6 -->
      <g transform="translate(393.051489 404.918125)scale(0.12 -0.12)">
       <defs>
        <path d="M 33.015625 40.375 
Q 26.375 40.375 22.484375 35.828125 
Q 18.609375 31.296875 18.609375 23.390625 
Q 18.609375 15.53125 22.484375 10.953125 
Q 26.375 6.390625 33.015625 6.390625 
Q 39.65625 6.390625 43.53125 10.953125 
Q 47.40625 15.53125 47.40625 23.390625 
Q 47.40625 31.296875 43.53125 35.828125 
Q 39.65625 40.375 33.015625 40.375 
z
M 52.59375 71.296875 
L 52.59375 62.3125 
Q 48.875 64.0625 45.09375 64.984375 
Q 41.3125 65.921875 37.59375 65.921875 
Q 27.828125 65.921875 22.671875 59.328125 
Q 17.53125 52.734375 16.796875 39.40625 
Q 19.671875 43.65625 24.015625 45.921875 
Q 28.375 48.1875 33.59375 48.1875 
Q 44.578125 48.1875 50.953125 41.515625 
Q 57.328125 34.859375 57.328125 23.390625 
Q 57.328125 12.15625 50.6875 5.359375 
Q 44.046875 -1.421875 33.015625 -1.421875 
Q 20.359375 -1.421875 13.671875 8.265625 
Q 6.984375 17.96875 6.984375 36.375 
Q 6.984375 53.65625 15.1875 63.9375 
Q 23.390625 74.21875 37.203125 74.21875 
Q 40.921875 74.21875 44.703125 73.484375 
Q 48.484375 72.75 52.59375 71.296875 
z
" id="DejaVuSans-54"/>
       </defs>
       <use xlink:href="#DejaVuSans-48"/>
       <use x="63.623047" xlink:href="#DejaVuSans-46"/>
       <use x="95.410156" xlink:href="#DejaVuSans-54"/>
      </g>
     </g>
    </g>
   </g>
   <g id="matplotlib.axis_2">
    <g id="ytick_1">
     <g id="line2d_7">
      <defs>
       <path d="M 0 0 
L -3.5 0 
" id="me848779215" style="stroke:#000000;stroke-width:0.8;"/>
      </defs>
      <g>
       <use style="stroke:#000000;stroke-width:0.8;" x="105.90125" xlink:href="#me848779215" y="378.534653"/>
      </g>
     </g>
     <g id="text_7">
      <!-- 1680__45851 -->
      <g transform="translate(31.63875 382.245591)scale(0.1 -0.1)">
       <defs>
        <path d="M 6.5 8.296875 
L 22.609375 8.296875 
L 33.5 64.40625 
L 15.28125 60.890625 
L 17 69.390625 
L 35.109375 72.90625 
L 45.015625 72.90625 
L 32.421875 8.296875 
L 48.484375 8.296875 
L 46.921875 0 
L 4.890625 0 
z
" id="DejaVuSans-Oblique-49"/>
        <path d="M 45.90625 27 
Q 45.90625 33.203125 42.71875 36.78125 
Q 39.546875 40.375 34.078125 40.375 
Q 26.515625 40.375 21.359375 34.546875 
Q 16.21875 28.71875 16.21875 20.125 
Q 16.21875 13.671875 19.359375 10.03125 
Q 22.515625 6.390625 28.078125 6.390625 
Q 35.6875 6.390625 40.796875 12.375 
Q 45.90625 18.359375 45.90625 27 
z
M 59.1875 71.1875 
L 57.515625 62.203125 
Q 54.6875 64.0625 51.015625 65.03125 
Q 47.359375 66.015625 43.21875 66.015625 
Q 33.109375 66.015625 26.96875 59.671875 
Q 20.84375 53.328125 17.828125 39.796875 
Q 21.390625 43.953125 26.09375 46.0625 
Q 30.8125 48.1875 36.28125 48.1875 
Q 45.21875 48.1875 50.515625 43.03125 
Q 55.8125 37.890625 55.8125 29.203125 
Q 55.8125 22.078125 53.203125 15.9375 
Q 50.59375 9.8125 45.609375 5.171875 
Q 42.1875 2 37.640625 0.28125 
Q 33.109375 -1.421875 27.984375 -1.421875 
Q 17.921875 -1.421875 12.109375 4.96875 
Q 6.296875 11.375 6.296875 22.515625 
Q 6.296875 32.859375 8.953125 42.453125 
Q 11.625 52.046875 16.40625 59.078125 
Q 21.4375 66.5 28.59375 70.359375 
Q 35.75 74.21875 44.390625 74.21875 
Q 48.1875 74.21875 51.890625 73.453125 
Q 55.609375 72.703125 59.1875 71.1875 
z
" id="DejaVuSans-Oblique-54"/>
        <path d="M 44.484375 22.125 
Q 44.484375 27.640625 40.625 31.125 
Q 36.765625 34.625 30.515625 34.625 
Q 22.90625 34.625 17.9375 30.046875 
Q 12.984375 25.484375 12.984375 18.5 
Q 12.984375 12.9375 16.765625 9.65625 
Q 20.5625 6.390625 27 6.390625 
Q 34.671875 6.390625 39.578125 10.828125 
Q 44.484375 15.28125 44.484375 22.125 
z
M 49.515625 56.109375 
Q 49.515625 60.75 46.09375 63.578125 
Q 42.671875 66.40625 37.015625 66.40625 
Q 30.328125 66.40625 26 62.640625 
Q 21.6875 58.890625 21.6875 53.21875 
Q 21.6875 48.34375 25.078125 45.359375 
Q 28.46875 42.390625 34.078125 42.390625 
Q 40.828125 42.390625 45.171875 46.265625 
Q 49.515625 50.140625 49.515625 56.109375 
z
M 42.828125 38.375 
Q 48.34375 36.28125 51.265625 32.03125 
Q 54.203125 27.78125 54.203125 21.78125 
Q 54.203125 11.671875 46.390625 5.125 
Q 38.578125 -1.421875 26.21875 -1.421875 
Q 15.71875 -1.421875 9.515625 3.734375 
Q 3.328125 8.890625 3.328125 17.484375 
Q 3.328125 25.296875 8.640625 31.375 
Q 13.96875 37.453125 22.515625 39.109375 
Q 17.390625 40.875 14.703125 44.5625 
Q 12.015625 48.25 12.015625 53.515625 
Q 12.015625 62.359375 19.359375 68.28125 
Q 26.703125 74.21875 37.984375 74.21875 
Q 47.40625 74.21875 53.34375 69.40625 
Q 59.28125 64.59375 59.28125 57.171875 
Q 59.28125 50.734375 54.859375 45.671875 
Q 50.4375 40.625 42.828125 38.375 
z
" id="DejaVuSans-Oblique-56"/>
        <path d="M 38.1875 74.21875 
Q 48.09375 74.21875 53.34375 67.625 
Q 58.59375 61.03125 58.59375 48.6875 
Q 58.59375 39.3125 56.125 30.046875 
Q 53.65625 20.796875 49.21875 13.484375 
Q 44.671875 6.15625 38.546875 2.359375 
Q 32.421875 -1.421875 25 -1.421875 
Q 15.4375 -1.421875 10.203125 5.21875 
Q 4.984375 11.859375 4.984375 24.125 
Q 4.984375 33.40625 7.5 42.703125 
Q 10.015625 52 14.5 59.28125 
Q 19 66.609375 25.03125 70.40625 
Q 31.0625 74.21875 38.1875 74.21875 
z
M 37.59375 66.40625 
Q 33.890625 66.40625 30.546875 64.421875 
Q 27.203125 62.453125 24.515625 58.59375 
Q 20.015625 52.15625 17.359375 42.5 
Q 14.703125 32.859375 14.703125 22.703125 
Q 14.703125 14.65625 17.546875 10.515625 
Q 20.40625 6.390625 25.984375 6.390625 
Q 29.890625 6.390625 33.203125 8.375 
Q 36.53125 10.359375 39.203125 14.203125 
Q 43.65625 20.609375 46.265625 30.25 
Q 48.875 39.890625 48.875 50.09375 
Q 48.875 58.15625 46.015625 62.28125 
Q 43.171875 66.40625 37.59375 66.40625 
z
" id="DejaVuSans-Oblique-48"/>
        <path d="M 50.984375 -16.609375 
L 50.984375 -23.578125 
L -0.984375 -23.578125 
L -0.984375 -16.609375 
z
" id="DejaVuSans-Oblique-95"/>
        <path d="M 43.015625 72.90625 
L 55.421875 72.90625 
L 46.09375 25.390625 
L 56.5 25.390625 
L 54.890625 17.1875 
L 44.484375 17.1875 
L 41.21875 0 
L 31.390625 0 
L 34.71875 17.1875 
L 1.8125 17.1875 
L 3.71875 26.703125 
z
M 43.890625 64.3125 
L 11.375 25.390625 
L 36.28125 25.390625 
z
" id="DejaVuSans-Oblique-52"/>
        <path d="M 58.109375 72.90625 
L 56.59375 64.703125 
L 26.421875 64.703125 
L 22.90625 46.6875 
Q 25.140625 47.40625 27.453125 47.75 
Q 29.78125 48.09375 32.171875 48.09375 
Q 42.28125 48.09375 48.140625 42.671875 
Q 54 37.25 54 27.984375 
Q 54 21.484375 51 15.53125 
Q 48 9.578125 42.484375 5.078125 
Q 38.578125 1.953125 32.9375 0.265625 
Q 27.296875 -1.421875 20.609375 -1.421875 
Q 16.21875 -1.421875 11.625 -0.640625 
Q 7.03125 0.140625 2 1.703125 
L 3.8125 10.890625 
Q 8.296875 8.6875 12.8125 7.59375 
Q 17.328125 6.5 21.921875 6.5 
Q 31.453125 6.5 37.671875 12.203125 
Q 43.890625 17.921875 43.890625 26.515625 
Q 43.890625 32.859375 39.8125 36.375 
Q 35.75 39.890625 28.421875 39.890625 
Q 24.5625 39.890625 20.390625 38.984375 
Q 16.21875 38.09375 11.8125 36.28125 
L 18.890625 72.90625 
z
" id="DejaVuSans-Oblique-53"/>
       </defs>
       <use xlink:href="#DejaVuSans-Oblique-49"/>
       <use x="63.623047" xlink:href="#DejaVuSans-Oblique-54"/>
       <use x="127.246094" xlink:href="#DejaVuSans-Oblique-56"/>
       <use x="190.869141" xlink:href="#DejaVuSans-Oblique-48"/>
       <use x="254.492188" xlink:href="#DejaVuSans-Oblique-95"/>
       <use x="304.492188" xlink:href="#DejaVuSans-Oblique-95"/>
       <use x="354.492188" xlink:href="#DejaVuSans-Oblique-52"/>
       <use x="418.115234" xlink:href="#DejaVuSans-Oblique-53"/>
       <use x="481.738281" xlink:href="#DejaVuSans-Oblique-56"/>
       <use x="545.361328" xlink:href="#DejaVuSans-Oblique-53"/>
       <use x="608.984375" xlink:href="#DejaVuSans-Oblique-49"/>
      </g>
     </g>
    </g>
    <g id="ytick_2">
     <g id="line2d_8">
      <g>
       <use style="stroke:#000000;stroke-width:0.8;" x="105.90125" xlink:href="#me848779215" y="361.425743"/>
      </g>
     </g>
     <g id="text_8">
      <!-- 39496__28118_39486 -->
      <g transform="translate(-11.53625 365.13668)scale(0.1 -0.1)">
       <defs>
        <path d="M 15.828125 71.09375 
Q 21.1875 72.65625 26.234375 73.4375 
Q 31.296875 74.21875 36.1875 74.21875 
Q 45.84375 74.21875 51.5 69.921875 
Q 57.171875 65.625 57.171875 58.40625 
Q 57.171875 51.3125 52.703125 46.234375 
Q 48.25 41.15625 40.375 39.3125 
Q 46.53125 37.546875 49.40625 33.828125 
Q 52.296875 30.125 52.296875 24.03125 
Q 52.296875 18.171875 49.484375 13.03125 
Q 46.6875 7.90625 41.40625 4.203125 
Q 37.40625 1.375 31.828125 -0.015625 
Q 26.265625 -1.421875 19 -1.421875 
Q 14.40625 -1.421875 9.71875 -0.515625 
Q 5.03125 0.390625 0.203125 2.203125 
L 2 11.53125 
Q 6.59375 8.984375 11.25 7.734375 
Q 15.921875 6.5 20.796875 6.5 
Q 30.421875 6.5 36.40625 11.453125 
Q 42.390625 16.40625 42.390625 24.3125 
Q 42.390625 29.390625 38.578125 32.140625 
Q 34.765625 34.90625 27.6875 34.90625 
L 19.1875 34.90625 
L 20.703125 42.921875 
L 29.6875 42.921875 
Q 37.796875 42.921875 42.453125 46.625 
Q 47.125 50.34375 47.125 56.6875 
Q 47.125 61.28125 43.703125 63.796875 
Q 40.28125 66.3125 34.078125 66.3125 
Q 29.390625 66.3125 24.484375 65.3125 
Q 19.578125 64.3125 14.3125 62.3125 
z
" id="DejaVuSans-Oblique-51"/>
        <path d="M 4.390625 1.609375 
L 6.203125 10.59375 
Q 9.03125 8.734375 12.640625 7.75 
Q 16.265625 6.78125 20.40625 6.78125 
Q 30.515625 6.78125 36.6875 13.171875 
Q 42.875 19.578125 45.90625 33.109375 
Q 42.28125 28.953125 37.515625 26.78125 
Q 32.765625 24.609375 27.296875 24.609375 
Q 18.40625 24.609375 13.15625 29.75 
Q 7.90625 34.90625 7.90625 43.609375 
Q 7.90625 50.734375 10.5 56.859375 
Q 13.09375 62.984375 18.109375 67.578125 
Q 21.53125 70.796875 26.015625 72.5 
Q 30.515625 74.21875 35.59375 74.21875 
Q 45.703125 74.21875 51.5625 67.796875 
Q 57.421875 61.375 57.421875 50.296875 
Q 57.421875 39.984375 54.703125 30.359375 
Q 52 20.75 47.21875 13.71875 
Q 42.140625 6.296875 35 2.4375 
Q 27.875 -1.421875 19.1875 -1.421875 
Q 15.4375 -1.421875 11.6875 -0.65625 
Q 7.953125 0.09375 4.390625 1.609375 
z
M 17.671875 45.90625 
Q 17.671875 39.703125 20.890625 36.0625 
Q 24.125 32.421875 29.59375 32.421875 
Q 37.15625 32.421875 42.28125 38.234375 
Q 47.40625 44.046875 47.40625 52.6875 
Q 47.40625 59.125 44.234375 62.765625 
Q 41.0625 66.40625 35.5 66.40625 
Q 27.9375 66.40625 22.796875 60.46875 
Q 17.671875 54.546875 17.671875 45.90625 
z
" id="DejaVuSans-Oblique-57"/>
        <path d="M 46.09375 35.203125 
L 14.59375 8.203125 
L 49.421875 8.203125 
L 47.703125 0 
L 0.390625 0 
L 2 8.296875 
L 34.90625 36.53125 
Q 41.5 42.234375 44.25 46.546875 
Q 47.015625 50.875 47.015625 55.421875 
Q 47.015625 60.15625 43.6875 63.125 
Q 40.375 66.109375 35.015625 66.109375 
Q 30.375 66.109375 24.703125 64.453125 
Q 19.046875 62.796875 12.59375 59.625 
L 14.40625 69.390625 
Q 20.453125 71.78125 25.96875 73 
Q 31.5 74.21875 36.1875 74.21875 
Q 45.75 74.21875 51.578125 69.140625 
Q 57.421875 64.0625 57.421875 55.8125 
Q 57.421875 50.25 54.640625 45.1875 
Q 51.859375 40.140625 46.09375 35.203125 
z
" id="DejaVuSans-Oblique-50"/>
       </defs>
       <use xlink:href="#DejaVuSans-Oblique-51"/>
       <use x="63.623047" xlink:href="#DejaVuSans-Oblique-57"/>
       <use x="127.246094" xlink:href="#DejaVuSans-Oblique-52"/>
       <use x="190.869141" xlink:href="#DejaVuSans-Oblique-57"/>
       <use x="254.492188" xlink:href="#DejaVuSans-Oblique-54"/>
       <use x="318.115234" xlink:href="#DejaVuSans-Oblique-95"/>
       <use x="368.115234" xlink:href="#DejaVuSans-Oblique-95"/>
       <use x="418.115234" xlink:href="#DejaVuSans-Oblique-50"/>
       <use x="481.738281" xlink:href="#DejaVuSans-Oblique-56"/>
       <use x="545.361328" xlink:href="#DejaVuSans-Oblique-49"/>
       <use x="608.984375" xlink:href="#DejaVuSans-Oblique-49"/>
       <use x="672.607422" xlink:href="#DejaVuSans-Oblique-56"/>
       <use x="736.230469" xlink:href="#DejaVuSans-Oblique-95"/>
       <use x="786.230469" xlink:href="#DejaVuSans-Oblique-51"/>
       <use x="849.853516" xlink:href="#DejaVuSans-Oblique-57"/>
       <use x="913.476562" xlink:href="#DejaVuSans-Oblique-52"/>
       <use x="977.099609" xlink:href="#DejaVuSans-Oblique-56"/>
       <use x="1040.722656" xlink:href="#DejaVuSans-Oblique-54"/>
      </g>
     </g>
    </g>
    <g id="ytick_3">
     <g id="line2d_9">
      <g>
       <use style="stroke:#000000;stroke-width:0.8;" x="105.90125" xlink:href="#me848779215" y="344.316832"/>
      </g>
     </g>
     <g id="text_9">
      <!-- 74426__487173 -->
      <g transform="translate(18.91375 348.027769)scale(0.1 -0.1)">
       <defs>
        <path d="M 12.796875 72.90625 
L 62.703125 72.90625 
L 61.8125 68.703125 
L 20.125 0 
L 9.28125 0 
L 48.6875 64.59375 
L 11.1875 64.59375 
z
" id="DejaVuSans-Oblique-55"/>
       </defs>
       <use xlink:href="#DejaVuSans-Oblique-55"/>
       <use x="63.623047" xlink:href="#DejaVuSans-Oblique-52"/>
       <use x="127.246094" xlink:href="#DejaVuSans-Oblique-52"/>
       <use x="190.869141" xlink:href="#DejaVuSans-Oblique-50"/>
       <use x="254.492188" xlink:href="#DejaVuSans-Oblique-54"/>
       <use x="318.115234" xlink:href="#DejaVuSans-Oblique-95"/>
       <use x="368.115234" xlink:href="#DejaVuSans-Oblique-95"/>
       <use x="418.115234" xlink:href="#DejaVuSans-Oblique-52"/>
       <use x="481.738281" xlink:href="#DejaVuSans-Oblique-56"/>
       <use x="545.361328" xlink:href="#DejaVuSans-Oblique-55"/>
       <use x="608.984375" xlink:href="#DejaVuSans-Oblique-49"/>
       <use x="672.607422" xlink:href="#DejaVuSans-Oblique-55"/>
       <use x="736.230469" xlink:href="#DejaVuSans-Oblique-51"/>
      </g>
     </g>
    </g>
    <g id="ytick_4">
     <g id="line2d_10">
      <g>
       <use style="stroke:#000000;stroke-width:0.8;" x="105.90125" xlink:href="#me848779215" y="327.207921"/>
      </g>
     </g>
     <g id="text_10">
      <!-- 40520__329854 -->
      <g transform="translate(18.91375 330.918858)scale(0.1 -0.1)">
       <use xlink:href="#DejaVuSans-Oblique-52"/>
       <use x="63.623047" xlink:href="#DejaVuSans-Oblique-48"/>
       <use x="127.246094" xlink:href="#DejaVuSans-Oblique-53"/>
       <use x="190.869141" xlink:href="#DejaVuSans-Oblique-50"/>
       <use x="254.492188" xlink:href="#DejaVuSans-Oblique-48"/>
       <use x="318.115234" xlink:href="#DejaVuSans-Oblique-95"/>
       <use x="368.115234" xlink:href="#DejaVuSans-Oblique-95"/>
       <use x="418.115234" xlink:href="#DejaVuSans-Oblique-51"/>
       <use x="481.738281" xlink:href="#DejaVuSans-Oblique-50"/>
       <use x="545.361328" xlink:href="#DejaVuSans-Oblique-57"/>
       <use x="608.984375" xlink:href="#DejaVuSans-Oblique-56"/>
       <use x="672.607422" xlink:href="#DejaVuSans-Oblique-53"/>
       <use x="736.230469" xlink:href="#DejaVuSans-Oblique-52"/>
      </g>
     </g>
    </g>
    <g id="ytick_5">
     <g id="line2d_11">
      <g>
       <use style="stroke:#000000;stroke-width:0.8;" x="105.90125" xlink:href="#me848779215" y="310.09901"/>
      </g>
     </g>
     <g id="text_11">
      <!-- 1502__214856 -->
      <g transform="translate(25.27625 313.809947)scale(0.1 -0.1)">
       <use xlink:href="#DejaVuSans-Oblique-49"/>
       <use x="63.623047" xlink:href="#DejaVuSans-Oblique-53"/>
       <use x="127.246094" xlink:href="#DejaVuSans-Oblique-48"/>
       <use x="190.869141" xlink:href="#DejaVuSans-Oblique-50"/>
       <use x="254.492188" xlink:href="#DejaVuSans-Oblique-95"/>
       <use x="304.492188" xlink:href="#DejaVuSans-Oblique-95"/>
       <use x="354.492188" xlink:href="#DejaVuSans-Oblique-50"/>
       <use x="418.115234" xlink:href="#DejaVuSans-Oblique-49"/>
       <use x="481.738281" xlink:href="#DejaVuSans-Oblique-52"/>
       <use x="545.361328" xlink:href="#DejaVuSans-Oblique-56"/>
       <use x="608.984375" xlink:href="#DejaVuSans-Oblique-53"/>
       <use x="672.607422" xlink:href="#DejaVuSans-Oblique-54"/>
      </g>
     </g>
    </g>
    <g id="ytick_6">
     <g id="line2d_12">
      <g>
       <use style="stroke:#000000;stroke-width:0.8;" x="105.90125" xlink:href="#me848779215" y="292.990099"/>
      </g>
     </g>
     <g id="text_12">
      <!-- 1318__387090 -->
      <g transform="translate(25.27625 296.701037)scale(0.1 -0.1)">
       <use xlink:href="#DejaVuSans-Oblique-49"/>
       <use x="63.623047" xlink:href="#DejaVuSans-Oblique-51"/>
       <use x="127.246094" xlink:href="#DejaVuSans-Oblique-49"/>
       <use x="190.869141" xlink:href="#DejaVuSans-Oblique-56"/>
       <use x="254.492188" xlink:href="#DejaVuSans-Oblique-95"/>
       <use x="304.492188" xlink:href="#DejaVuSans-Oblique-95"/>
       <use x="354.492188" xlink:href="#DejaVuSans-Oblique-51"/>
       <use x="418.115234" xlink:href="#DejaVuSans-Oblique-56"/>
       <use x="481.738281" xlink:href="#DejaVuSans-Oblique-55"/>
       <use x="545.361328" xlink:href="#DejaVuSans-Oblique-48"/>
       <use x="608.984375" xlink:href="#DejaVuSans-Oblique-57"/>
       <use x="672.607422" xlink:href="#DejaVuSans-Oblique-48"/>
      </g>
     </g>
    </g>
    <g id="ytick_7">
     <g id="line2d_13">
      <g>
       <use style="stroke:#000000;stroke-width:0.8;" x="105.90125" xlink:href="#me848779215" y="275.881188"/>
      </g>
     </g>
     <g id="text_13">
      <!-- 33038__246787 -->
      <g transform="translate(18.91375 279.592126)scale(0.1 -0.1)">
       <use xlink:href="#DejaVuSans-Oblique-51"/>
       <use x="63.623047" xlink:href="#DejaVuSans-Oblique-51"/>
       <use x="127.246094" xlink:href="#DejaVuSans-Oblique-48"/>
       <use x="190.869141" xlink:href="#DejaVuSans-Oblique-51"/>
       <use x="254.492188" xlink:href="#DejaVuSans-Oblique-56"/>
       <use x="318.115234" xlink:href="#DejaVuSans-Oblique-95"/>
       <use x="368.115234" xlink:href="#DejaVuSans-Oblique-95"/>
       <use x="418.115234" xlink:href="#DejaVuSans-Oblique-50"/>
       <use x="481.738281" xlink:href="#DejaVuSans-Oblique-52"/>
       <use x="545.361328" xlink:href="#DejaVuSans-Oblique-54"/>
       <use x="608.984375" xlink:href="#DejaVuSans-Oblique-55"/>
       <use x="672.607422" xlink:href="#DejaVuSans-Oblique-56"/>
       <use x="736.230469" xlink:href="#DejaVuSans-Oblique-55"/>
      </g>
     </g>
    </g>
    <g id="ytick_8">
     <g id="line2d_14">
      <g>
       <use style="stroke:#000000;stroke-width:0.8;" x="105.90125" xlink:href="#me848779215" y="258.772277"/>
      </g>
     </g>
     <g id="text_14">
      <!-- 1304__239935 -->
      <g transform="translate(25.27625 262.483215)scale(0.1 -0.1)">
       <use xlink:href="#DejaVuSans-Oblique-49"/>
       <use x="63.623047" xlink:href="#DejaVuSans-Oblique-51"/>
       <use x="127.246094" xlink:href="#DejaVuSans-Oblique-48"/>
       <use x="190.869141" xlink:href="#DejaVuSans-Oblique-52"/>
       <use x="254.492188" xlink:href="#DejaVuSans-Oblique-95"/>
       <use x="304.492188" xlink:href="#DejaVuSans-Oblique-95"/>
       <use x="354.492188" xlink:href="#DejaVuSans-Oblique-50"/>
       <use x="418.115234" xlink:href="#DejaVuSans-Oblique-51"/>
       <use x="481.738281" xlink:href="#DejaVuSans-Oblique-57"/>
       <use x="545.361328" xlink:href="#DejaVuSans-Oblique-57"/>
       <use x="608.984375" xlink:href="#DejaVuSans-Oblique-51"/>
       <use x="672.607422" xlink:href="#DejaVuSans-Oblique-53"/>
      </g>
     </g>
    </g>
    <g id="ytick_9">
     <g id="line2d_15">
      <g>
       <use style="stroke:#000000;stroke-width:0.8;" x="105.90125" xlink:href="#me848779215" y="241.663366"/>
      </g>
     </g>
     <g id="text_15">
      <!-- 1308__47678 -->
      <g transform="translate(31.63875 245.374304)scale(0.1 -0.1)">
       <use xlink:href="#DejaVuSans-Oblique-49"/>
       <use x="63.623047" xlink:href="#DejaVuSans-Oblique-51"/>
       <use x="127.246094" xlink:href="#DejaVuSans-Oblique-48"/>
       <use x="190.869141" xlink:href="#DejaVuSans-Oblique-56"/>
       <use x="254.492188" xlink:href="#DejaVuSans-Oblique-95"/>
       <use x="304.492188" xlink:href="#DejaVuSans-Oblique-95"/>
       <use x="354.492188" xlink:href="#DejaVuSans-Oblique-52"/>
       <use x="418.115234" xlink:href="#DejaVuSans-Oblique-55"/>
       <use x="481.738281" xlink:href="#DejaVuSans-Oblique-54"/>
       <use x="545.361328" xlink:href="#DejaVuSans-Oblique-55"/>
       <use x="608.984375" xlink:href="#DejaVuSans-Oblique-56"/>
      </g>
     </g>
    </g>
    <g id="ytick_10">
     <g id="line2d_16">
      <g>
       <use style="stroke:#000000;stroke-width:0.8;" x="105.90125" xlink:href="#me848779215" y="224.554455"/>
      </g>
     </g>
     <g id="text_16">
      <!-- 39488__751585 -->
      <g transform="translate(18.91375 228.265393)scale(0.1 -0.1)">
       <use xlink:href="#DejaVuSans-Oblique-51"/>
       <use x="63.623047" xlink:href="#DejaVuSans-Oblique-57"/>
       <use x="127.246094" xlink:href="#DejaVuSans-Oblique-52"/>
       <use x="190.869141" xlink:href="#DejaVuSans-Oblique-56"/>
       <use x="254.492188" xlink:href="#DejaVuSans-Oblique-56"/>
       <use x="318.115234" xlink:href="#DejaVuSans-Oblique-95"/>
       <use x="368.115234" xlink:href="#DejaVuSans-Oblique-95"/>
       <use x="418.115234" xlink:href="#DejaVuSans-Oblique-55"/>
       <use x="481.738281" xlink:href="#DejaVuSans-Oblique-53"/>
       <use x="545.361328" xlink:href="#DejaVuSans-Oblique-49"/>
       <use x="608.984375" xlink:href="#DejaVuSans-Oblique-53"/>
       <use x="672.607422" xlink:href="#DejaVuSans-Oblique-56"/>
       <use x="736.230469" xlink:href="#DejaVuSans-Oblique-53"/>
      </g>
     </g>
    </g>
    <g id="ytick_11">
     <g id="line2d_17">
      <g>
       <use style="stroke:#000000;stroke-width:0.8;" x="105.90125" xlink:href="#me848779215" y="207.445545"/>
      </g>
     </g>
     <g id="text_17">
      <!-- 40545__33039_360807 -->
      <g transform="translate(-17.89875 211.156482)scale(0.1 -0.1)">
       <use xlink:href="#DejaVuSans-Oblique-52"/>
       <use x="63.623047" xlink:href="#DejaVuSans-Oblique-48"/>
       <use x="127.246094" xlink:href="#DejaVuSans-Oblique-53"/>
       <use x="190.869141" xlink:href="#DejaVuSans-Oblique-52"/>
       <use x="254.492188" xlink:href="#DejaVuSans-Oblique-53"/>
       <use x="318.115234" xlink:href="#DejaVuSans-Oblique-95"/>
       <use x="368.115234" xlink:href="#DejaVuSans-Oblique-95"/>
       <use x="418.115234" xlink:href="#DejaVuSans-Oblique-51"/>
       <use x="481.738281" xlink:href="#DejaVuSans-Oblique-51"/>
       <use x="545.361328" xlink:href="#DejaVuSans-Oblique-48"/>
       <use x="608.984375" xlink:href="#DejaVuSans-Oblique-51"/>
       <use x="672.607422" xlink:href="#DejaVuSans-Oblique-57"/>
       <use x="736.230469" xlink:href="#DejaVuSans-Oblique-95"/>
       <use x="786.230469" xlink:href="#DejaVuSans-Oblique-51"/>
       <use x="849.853516" xlink:href="#DejaVuSans-Oblique-54"/>
       <use x="913.476562" xlink:href="#DejaVuSans-Oblique-48"/>
       <use x="977.099609" xlink:href="#DejaVuSans-Oblique-56"/>
       <use x="1040.722656" xlink:href="#DejaVuSans-Oblique-48"/>
       <use x="1104.345703" xlink:href="#DejaVuSans-Oblique-55"/>
      </g>
     </g>
    </g>
    <g id="ytick_12">
     <g id="line2d_18">
      <g>
       <use style="stroke:#000000;stroke-width:0.8;" x="105.90125" xlink:href="#me848779215" y="190.336634"/>
      </g>
     </g>
     <g id="text_18">
      <!-- 166486__261299 -->
      <g transform="translate(12.55125 194.047571)scale(0.1 -0.1)">
       <use xlink:href="#DejaVuSans-Oblique-49"/>
       <use x="63.623047" xlink:href="#DejaVuSans-Oblique-54"/>
       <use x="127.246094" xlink:href="#DejaVuSans-Oblique-54"/>
       <use x="190.869141" xlink:href="#DejaVuSans-Oblique-52"/>
       <use x="254.492188" xlink:href="#DejaVuSans-Oblique-56"/>
       <use x="318.115234" xlink:href="#DejaVuSans-Oblique-54"/>
       <use x="381.738281" xlink:href="#DejaVuSans-Oblique-95"/>
       <use x="431.738281" xlink:href="#DejaVuSans-Oblique-95"/>
       <use x="481.738281" xlink:href="#DejaVuSans-Oblique-50"/>
       <use x="545.361328" xlink:href="#DejaVuSans-Oblique-54"/>
       <use x="608.984375" xlink:href="#DejaVuSans-Oblique-49"/>
       <use x="672.607422" xlink:href="#DejaVuSans-Oblique-50"/>
       <use x="736.230469" xlink:href="#DejaVuSans-Oblique-57"/>
       <use x="799.853516" xlink:href="#DejaVuSans-Oblique-57"/>
      </g>
     </g>
    </g>
    <g id="ytick_13">
     <g id="line2d_19">
      <g>
       <use style="stroke:#000000;stroke-width:0.8;" x="105.90125" xlink:href="#me848779215" y="173.227723"/>
      </g>
     </g>
     <g id="text_19">
      <!-- 28117__457412 -->
      <g transform="translate(18.91375 176.93866)scale(0.1 -0.1)">
       <use xlink:href="#DejaVuSans-Oblique-50"/>
       <use x="63.623047" xlink:href="#DejaVuSans-Oblique-56"/>
       <use x="127.246094" xlink:href="#DejaVuSans-Oblique-49"/>
       <use x="190.869141" xlink:href="#DejaVuSans-Oblique-49"/>
       <use x="254.492188" xlink:href="#DejaVuSans-Oblique-55"/>
       <use x="318.115234" xlink:href="#DejaVuSans-Oblique-95"/>
       <use x="368.115234" xlink:href="#DejaVuSans-Oblique-95"/>
       <use x="418.115234" xlink:href="#DejaVuSans-Oblique-52"/>
       <use x="481.738281" xlink:href="#DejaVuSans-Oblique-53"/>
       <use x="545.361328" xlink:href="#DejaVuSans-Oblique-55"/>
       <use x="608.984375" xlink:href="#DejaVuSans-Oblique-52"/>
       <use x="672.607422" xlink:href="#DejaVuSans-Oblique-49"/>
       <use x="736.230469" xlink:href="#DejaVuSans-Oblique-50"/>
      </g>
     </g>
    </g>
    <g id="ytick_14">
     <g id="line2d_20">
      <g>
       <use style="stroke:#000000;stroke-width:0.8;" x="105.90125" xlink:href="#me848779215" y="156.118812"/>
      </g>
     </g>
     <g id="text_20">
      <!-- 821__46506 -->
      <g transform="translate(38.00125 159.829749)scale(0.1 -0.1)">
       <use xlink:href="#DejaVuSans-Oblique-56"/>
       <use x="63.623047" xlink:href="#DejaVuSans-Oblique-50"/>
       <use x="127.246094" xlink:href="#DejaVuSans-Oblique-49"/>
       <use x="190.869141" xlink:href="#DejaVuSans-Oblique-95"/>
       <use x="240.869141" xlink:href="#DejaVuSans-Oblique-95"/>
       <use x="290.869141" xlink:href="#DejaVuSans-Oblique-52"/>
       <use x="354.492188" xlink:href="#DejaVuSans-Oblique-54"/>
       <use x="418.115234" xlink:href="#DejaVuSans-Oblique-53"/>
       <use x="481.738281" xlink:href="#DejaVuSans-Oblique-48"/>
       <use x="545.361328" xlink:href="#DejaVuSans-Oblique-54"/>
      </g>
     </g>
    </g>
    <g id="ytick_15">
     <g id="line2d_21">
      <g>
       <use style="stroke:#000000;stroke-width:0.8;" x="105.90125" xlink:href="#me848779215" y="139.009901"/>
      </g>
     </g>
     <g id="text_21">
      <!-- 100886__165179_310298 -->
      <g transform="translate(-30.62375 142.720838)scale(0.1 -0.1)">
       <use xlink:href="#DejaVuSans-Oblique-49"/>
       <use x="63.623047" xlink:href="#DejaVuSans-Oblique-48"/>
       <use x="127.246094" xlink:href="#DejaVuSans-Oblique-48"/>
       <use x="190.869141" xlink:href="#DejaVuSans-Oblique-56"/>
       <use x="254.492188" xlink:href="#DejaVuSans-Oblique-56"/>
       <use x="318.115234" xlink:href="#DejaVuSans-Oblique-54"/>
       <use x="381.738281" xlink:href="#DejaVuSans-Oblique-95"/>
       <use x="431.738281" xlink:href="#DejaVuSans-Oblique-95"/>
       <use x="481.738281" xlink:href="#DejaVuSans-Oblique-49"/>
       <use x="545.361328" xlink:href="#DejaVuSans-Oblique-54"/>
       <use x="608.984375" xlink:href="#DejaVuSans-Oblique-53"/>
       <use x="672.607422" xlink:href="#DejaVuSans-Oblique-49"/>
       <use x="736.230469" xlink:href="#DejaVuSans-Oblique-55"/>
       <use x="799.853516" xlink:href="#DejaVuSans-Oblique-57"/>
       <use x="863.476562" xlink:href="#DejaVuSans-Oblique-95"/>
       <use x="913.476562" xlink:href="#DejaVuSans-Oblique-51"/>
       <use x="977.099609" xlink:href="#DejaVuSans-Oblique-49"/>
       <use x="1040.722656" xlink:href="#DejaVuSans-Oblique-48"/>
       <use x="1104.345703" xlink:href="#DejaVuSans-Oblique-50"/>
       <use x="1167.96875" xlink:href="#DejaVuSans-Oblique-57"/>
       <use x="1231.591797" xlink:href="#DejaVuSans-Oblique-56"/>
      </g>
     </g>
    </g>
    <g id="ytick_16">
     <g id="line2d_22">
      <g>
       <use style="stroke:#000000;stroke-width:0.8;" x="105.90125" xlink:href="#me848779215" y="121.90099"/>
      </g>
     </g>
     <g id="text_22">
      <!-- 28111__208479 -->
      <g transform="translate(18.91375 125.611928)scale(0.1 -0.1)">
       <use xlink:href="#DejaVuSans-Oblique-50"/>
       <use x="63.623047" xlink:href="#DejaVuSans-Oblique-56"/>
       <use x="127.246094" xlink:href="#DejaVuSans-Oblique-49"/>
       <use x="190.869141" xlink:href="#DejaVuSans-Oblique-49"/>
       <use x="254.492188" xlink:href="#DejaVuSans-Oblique-49"/>
       <use x="318.115234" xlink:href="#DejaVuSans-Oblique-95"/>
       <use x="368.115234" xlink:href="#DejaVuSans-Oblique-95"/>
       <use x="418.115234" xlink:href="#DejaVuSans-Oblique-50"/>
       <use x="481.738281" xlink:href="#DejaVuSans-Oblique-48"/>
       <use x="545.361328" xlink:href="#DejaVuSans-Oblique-56"/>
       <use x="608.984375" xlink:href="#DejaVuSans-Oblique-52"/>
       <use x="672.607422" xlink:href="#DejaVuSans-Oblique-55"/>
       <use x="736.230469" xlink:href="#DejaVuSans-Oblique-57"/>
      </g>
     </g>
    </g>
    <g id="ytick_17">
     <g id="line2d_23">
      <g>
       <use style="stroke:#000000;stroke-width:0.8;" x="105.90125" xlink:href="#me848779215" y="104.792079"/>
      </g>
     </g>
     <g id="text_23">
      <!-- 823__39483 -->
      <g transform="translate(38.00125 108.503017)scale(0.1 -0.1)">
       <use xlink:href="#DejaVuSans-Oblique-56"/>
       <use x="63.623047" xlink:href="#DejaVuSans-Oblique-50"/>
       <use x="127.246094" xlink:href="#DejaVuSans-Oblique-51"/>
       <use x="190.869141" xlink:href="#DejaVuSans-Oblique-95"/>
       <use x="240.869141" xlink:href="#DejaVuSans-Oblique-95"/>
       <use x="290.869141" xlink:href="#DejaVuSans-Oblique-51"/>
       <use x="354.492188" xlink:href="#DejaVuSans-Oblique-57"/>
       <use x="418.115234" xlink:href="#DejaVuSans-Oblique-52"/>
       <use x="481.738281" xlink:href="#DejaVuSans-Oblique-56"/>
       <use x="545.361328" xlink:href="#DejaVuSans-Oblique-51"/>
      </g>
     </g>
    </g>
    <g id="ytick_18">
     <g id="line2d_24">
      <g>
       <use style="stroke:#000000;stroke-width:0.8;" x="105.90125" xlink:href="#me848779215" y="87.683168"/>
      </g>
     </g>
     <g id="text_24">
      <!-- 1531__40518_658081 -->
      <g transform="translate(-11.53625 91.394106)scale(0.1 -0.1)">
       <use xlink:href="#DejaVuSans-Oblique-49"/>
       <use x="63.623047" xlink:href="#DejaVuSans-Oblique-53"/>
       <use x="127.246094" xlink:href="#DejaVuSans-Oblique-51"/>
       <use x="190.869141" xlink:href="#DejaVuSans-Oblique-49"/>
       <use x="254.492188" xlink:href="#DejaVuSans-Oblique-95"/>
       <use x="304.492188" xlink:href="#DejaVuSans-Oblique-95"/>
       <use x="354.492188" xlink:href="#DejaVuSans-Oblique-52"/>
       <use x="418.115234" xlink:href="#DejaVuSans-Oblique-48"/>
       <use x="481.738281" xlink:href="#DejaVuSans-Oblique-53"/>
       <use x="545.361328" xlink:href="#DejaVuSans-Oblique-49"/>
       <use x="608.984375" xlink:href="#DejaVuSans-Oblique-56"/>
       <use x="672.607422" xlink:href="#DejaVuSans-Oblique-95"/>
       <use x="722.607422" xlink:href="#DejaVuSans-Oblique-54"/>
       <use x="786.230469" xlink:href="#DejaVuSans-Oblique-53"/>
       <use x="849.853516" xlink:href="#DejaVuSans-Oblique-56"/>
       <use x="913.476562" xlink:href="#DejaVuSans-Oblique-48"/>
       <use x="977.099609" xlink:href="#DejaVuSans-Oblique-56"/>
       <use x="1040.722656" xlink:href="#DejaVuSans-Oblique-49"/>
      </g>
     </g>
    </g>
    <g id="ytick_19">
     <g id="line2d_25">
      <g>
       <use style="stroke:#000000;stroke-width:0.8;" x="105.90125" xlink:href="#me848779215" y="70.574257"/>
      </g>
     </g>
     <g id="text_25">
      <!-- 40518__658081 -->
      <g transform="translate(18.91375 74.285195)scale(0.1 -0.1)">
       <use xlink:href="#DejaVuSans-Oblique-52"/>
       <use x="63.623047" xlink:href="#DejaVuSans-Oblique-48"/>
       <use x="127.246094" xlink:href="#DejaVuSans-Oblique-53"/>
       <use x="190.869141" xlink:href="#DejaVuSans-Oblique-49"/>
       <use x="254.492188" xlink:href="#DejaVuSans-Oblique-56"/>
       <use x="318.115234" xlink:href="#DejaVuSans-Oblique-95"/>
       <use x="368.115234" xlink:href="#DejaVuSans-Oblique-95"/>
       <use x="418.115234" xlink:href="#DejaVuSans-Oblique-54"/>
       <use x="481.738281" xlink:href="#DejaVuSans-Oblique-53"/>
       <use x="545.361328" xlink:href="#DejaVuSans-Oblique-56"/>
       <use x="608.984375" xlink:href="#DejaVuSans-Oblique-48"/>
       <use x="672.607422" xlink:href="#DejaVuSans-Oblique-56"/>
       <use x="736.230469" xlink:href="#DejaVuSans-Oblique-49"/>
      </g>
     </g>
    </g>
    <g id="ytick_20">
     <g id="line2d_26">
      <g>
       <use style="stroke:#000000;stroke-width:0.8;" x="105.90125" xlink:href="#me848779215" y="53.465347"/>
      </g>
     </g>
     <g id="text_26">
      <!-- 28118__39486 -->
      <g transform="translate(25.27625 57.176284)scale(0.1 -0.1)">
       <use xlink:href="#DejaVuSans-Oblique-50"/>
       <use x="63.623047" xlink:href="#DejaVuSans-Oblique-56"/>
       <use x="127.246094" xlink:href="#DejaVuSans-Oblique-49"/>
       <use x="190.869141" xlink:href="#DejaVuSans-Oblique-49"/>
       <use x="254.492188" xlink:href="#DejaVuSans-Oblique-56"/>
       <use x="318.115234" xlink:href="#DejaVuSans-Oblique-95"/>
       <use x="368.115234" xlink:href="#DejaVuSans-Oblique-95"/>
       <use x="418.115234" xlink:href="#DejaVuSans-Oblique-51"/>
       <use x="481.738281" xlink:href="#DejaVuSans-Oblique-57"/>
       <use x="545.361328" xlink:href="#DejaVuSans-Oblique-52"/>
       <use x="608.984375" xlink:href="#DejaVuSans-Oblique-56"/>
       <use x="672.607422" xlink:href="#DejaVuSans-Oblique-54"/>
      </g>
     </g>
    </g>
   </g>
   <g id="patch_23">
    <path d="M 105.90125 388.8 
L 105.90125 43.2 
" style="fill:none;stroke:#000000;stroke-linecap:square;stroke-linejoin:miter;stroke-width:0.8;"/>
   </g>
   <g id="patch_24">
    <path d="M 412.79875 388.8 
L 412.79875 43.2 
" style="fill:none;stroke:#000000;stroke-linecap:square;stroke-linejoin:miter;stroke-width:0.8;"/>
   </g>
   <g id="patch_25">
    <path d="M 105.90125 388.8 
L 412.79875 388.8 
" style="fill:none;stroke:#000000;stroke-linecap:square;stroke-linejoin:miter;stroke-width:0.8;"/>
   </g>
   <g id="patch_26">
    <path d="M 105.90125 43.2 
L 412.79875 43.2 
" style="fill:none;stroke:#000000;stroke-linecap:square;stroke-linejoin:miter;stroke-width:0.8;"/>
   </g>
   <g id="text_27">
    <!-- D006262 -->
    <g transform="translate(231.825 37.2)scale(0.12 -0.12)">
     <defs>
      <path d="M 19.671875 64.796875 
L 19.671875 8.109375 
L 31.59375 8.109375 
Q 46.6875 8.109375 53.6875 14.9375 
Q 60.6875 21.78125 60.6875 36.53125 
Q 60.6875 51.171875 53.6875 57.984375 
Q 46.6875 64.796875 31.59375 64.796875 
z
M 9.8125 72.90625 
L 30.078125 72.90625 
Q 51.265625 72.90625 61.171875 64.09375 
Q 71.09375 55.28125 71.09375 36.53125 
Q 71.09375 17.671875 61.125 8.828125 
Q 51.171875 0 30.078125 0 
L 9.8125 0 
z
" id="DejaVuSans-68"/>
     </defs>
     <use xlink:href="#DejaVuSans-68"/>
     <use x="77.001953" xlink:href="#DejaVuSans-48"/>
     <use x="140.625" xlink:href="#DejaVuSans-48"/>
     <use x="204.248047" xlink:href="#DejaVuSans-54"/>
     <use x="267.871094" xlink:href="#DejaVuSans-50"/>
     <use x="331.494141" xlink:href="#DejaVuSans-54"/>
     <use x="395.117188" xlink:href="#DejaVuSans-50"/>
    </g>
   </g>
  </g>
  <g id="text_28">
   <!-- Coefficient of the features -->
   <g transform="translate(232.828125 414.72)scale(0.12 -0.12)">
    <defs>
     <path d="M 64.40625 67.28125 
L 64.40625 56.890625 
Q 59.421875 61.53125 53.78125 63.8125 
Q 48.140625 66.109375 41.796875 66.109375 
Q 29.296875 66.109375 22.65625 58.46875 
Q 16.015625 50.828125 16.015625 36.375 
Q 16.015625 21.96875 22.65625 14.328125 
Q 29.296875 6.6875 41.796875 6.6875 
Q 48.140625 6.6875 53.78125 8.984375 
Q 59.421875 11.28125 64.40625 15.921875 
L 64.40625 5.609375 
Q 59.234375 2.09375 53.4375 0.328125 
Q 47.65625 -1.421875 41.21875 -1.421875 
Q 24.65625 -1.421875 15.125 8.703125 
Q 5.609375 18.84375 5.609375 36.375 
Q 5.609375 53.953125 15.125 64.078125 
Q 24.65625 74.21875 41.21875 74.21875 
Q 47.75 74.21875 53.53125 72.484375 
Q 59.328125 70.75 64.40625 67.28125 
z
" id="DejaVuSans-67"/>
     <path d="M 30.609375 48.390625 
Q 23.390625 48.390625 19.1875 42.75 
Q 14.984375 37.109375 14.984375 27.296875 
Q 14.984375 17.484375 19.15625 11.84375 
Q 23.34375 6.203125 30.609375 6.203125 
Q 37.796875 6.203125 41.984375 11.859375 
Q 46.1875 17.53125 46.1875 27.296875 
Q 46.1875 37.015625 41.984375 42.703125 
Q 37.796875 48.390625 30.609375 48.390625 
z
M 30.609375 56 
Q 42.328125 56 49.015625 48.375 
Q 55.71875 40.765625 55.71875 27.296875 
Q 55.71875 13.875 49.015625 6.21875 
Q 42.328125 -1.421875 30.609375 -1.421875 
Q 18.84375 -1.421875 12.171875 6.21875 
Q 5.515625 13.875 5.515625 27.296875 
Q 5.515625 40.765625 12.171875 48.375 
Q 18.84375 56 30.609375 56 
z
" id="DejaVuSans-111"/>
     <path d="M 56.203125 29.59375 
L 56.203125 25.203125 
L 14.890625 25.203125 
Q 15.484375 15.921875 20.484375 11.0625 
Q 25.484375 6.203125 34.421875 6.203125 
Q 39.59375 6.203125 44.453125 7.46875 
Q 49.3125 8.734375 54.109375 11.28125 
L 54.109375 2.78125 
Q 49.265625 0.734375 44.1875 -0.34375 
Q 39.109375 -1.421875 33.890625 -1.421875 
Q 20.796875 -1.421875 13.15625 6.1875 
Q 5.515625 13.8125 5.515625 26.8125 
Q 5.515625 40.234375 12.765625 48.109375 
Q 20.015625 56 32.328125 56 
Q 43.359375 56 49.78125 48.890625 
Q 56.203125 41.796875 56.203125 29.59375 
z
M 47.21875 32.234375 
Q 47.125 39.59375 43.09375 43.984375 
Q 39.0625 48.390625 32.421875 48.390625 
Q 24.90625 48.390625 20.390625 44.140625 
Q 15.875 39.890625 15.1875 32.171875 
z
" id="DejaVuSans-101"/>
     <path d="M 37.109375 75.984375 
L 37.109375 68.5 
L 28.515625 68.5 
Q 23.6875 68.5 21.796875 66.546875 
Q 19.921875 64.59375 19.921875 59.515625 
L 19.921875 54.6875 
L 34.71875 54.6875 
L 34.71875 47.703125 
L 19.921875 47.703125 
L 19.921875 0 
L 10.890625 0 
L 10.890625 47.703125 
L 2.296875 47.703125 
L 2.296875 54.6875 
L 10.890625 54.6875 
L 10.890625 58.5 
Q 10.890625 67.625 15.140625 71.796875 
Q 19.390625 75.984375 28.609375 75.984375 
z
" id="DejaVuSans-102"/>
     <path d="M 9.421875 54.6875 
L 18.40625 54.6875 
L 18.40625 0 
L 9.421875 0 
z
M 9.421875 75.984375 
L 18.40625 75.984375 
L 18.40625 64.59375 
L 9.421875 64.59375 
z
" id="DejaVuSans-105"/>
     <path d="M 48.78125 52.59375 
L 48.78125 44.1875 
Q 44.96875 46.296875 41.140625 47.34375 
Q 37.3125 48.390625 33.40625 48.390625 
Q 24.65625 48.390625 19.8125 42.84375 
Q 14.984375 37.3125 14.984375 27.296875 
Q 14.984375 17.28125 19.8125 11.734375 
Q 24.65625 6.203125 33.40625 6.203125 
Q 37.3125 6.203125 41.140625 7.25 
Q 44.96875 8.296875 48.78125 10.40625 
L 48.78125 2.09375 
Q 45.015625 0.34375 40.984375 -0.53125 
Q 36.96875 -1.421875 32.421875 -1.421875 
Q 20.0625 -1.421875 12.78125 6.34375 
Q 5.515625 14.109375 5.515625 27.296875 
Q 5.515625 40.671875 12.859375 48.328125 
Q 20.21875 56 33.015625 56 
Q 37.15625 56 41.109375 55.140625 
Q 45.0625 54.296875 48.78125 52.59375 
z
" id="DejaVuSans-99"/>
     <path d="M 54.890625 33.015625 
L 54.890625 0 
L 45.90625 0 
L 45.90625 32.71875 
Q 45.90625 40.484375 42.875 44.328125 
Q 39.84375 48.1875 33.796875 48.1875 
Q 26.515625 48.1875 22.3125 43.546875 
Q 18.109375 38.921875 18.109375 30.90625 
L 18.109375 0 
L 9.078125 0 
L 9.078125 54.6875 
L 18.109375 54.6875 
L 18.109375 46.1875 
Q 21.34375 51.125 25.703125 53.5625 
Q 30.078125 56 35.796875 56 
Q 45.21875 56 50.046875 50.171875 
Q 54.890625 44.34375 54.890625 33.015625 
z
" id="DejaVuSans-110"/>
     <path d="M 18.3125 70.21875 
L 18.3125 54.6875 
L 36.8125 54.6875 
L 36.8125 47.703125 
L 18.3125 47.703125 
L 18.3125 18.015625 
Q 18.3125 11.328125 20.140625 9.421875 
Q 21.96875 7.515625 27.59375 7.515625 
L 36.8125 7.515625 
L 36.8125 0 
L 27.59375 0 
Q 17.1875 0 13.234375 3.875 
Q 9.28125 7.765625 9.28125 18.015625 
L 9.28125 47.703125 
L 2.6875 47.703125 
L 2.6875 54.6875 
L 9.28125 54.6875 
L 9.28125 70.21875 
z
" id="DejaVuSans-116"/>
     <path id="DejaVuSans-32"/>
     <path d="M 54.890625 33.015625 
L 54.890625 0 
L 45.90625 0 
L 45.90625 32.71875 
Q 45.90625 40.484375 42.875 44.328125 
Q 39.84375 48.1875 33.796875 48.1875 
Q 26.515625 48.1875 22.3125 43.546875 
Q 18.109375 38.921875 18.109375 30.90625 
L 18.109375 0 
L 9.078125 0 
L 9.078125 75.984375 
L 18.109375 75.984375 
L 18.109375 46.1875 
Q 21.34375 51.125 25.703125 53.5625 
Q 30.078125 56 35.796875 56 
Q 45.21875 56 50.046875 50.171875 
Q 54.890625 44.34375 54.890625 33.015625 
z
" id="DejaVuSans-104"/>
     <path d="M 34.28125 27.484375 
Q 23.390625 27.484375 19.1875 25 
Q 14.984375 22.515625 14.984375 16.5 
Q 14.984375 11.71875 18.140625 8.90625 
Q 21.296875 6.109375 26.703125 6.109375 
Q 34.1875 6.109375 38.703125 11.40625 
Q 43.21875 16.703125 43.21875 25.484375 
L 43.21875 27.484375 
z
M 52.203125 31.203125 
L 52.203125 0 
L 43.21875 0 
L 43.21875 8.296875 
Q 40.140625 3.328125 35.546875 0.953125 
Q 30.953125 -1.421875 24.3125 -1.421875 
Q 15.921875 -1.421875 10.953125 3.296875 
Q 6 8.015625 6 15.921875 
Q 6 25.140625 12.171875 29.828125 
Q 18.359375 34.515625 30.609375 34.515625 
L 43.21875 34.515625 
L 43.21875 35.40625 
Q 43.21875 41.609375 39.140625 45 
Q 35.0625 48.390625 27.6875 48.390625 
Q 23 48.390625 18.546875 47.265625 
Q 14.109375 46.140625 10.015625 43.890625 
L 10.015625 52.203125 
Q 14.9375 54.109375 19.578125 55.046875 
Q 24.21875 56 28.609375 56 
Q 40.484375 56 46.34375 49.84375 
Q 52.203125 43.703125 52.203125 31.203125 
z
" id="DejaVuSans-97"/>
     <path d="M 8.5 21.578125 
L 8.5 54.6875 
L 17.484375 54.6875 
L 17.484375 21.921875 
Q 17.484375 14.15625 20.5 10.265625 
Q 23.53125 6.390625 29.59375 6.390625 
Q 36.859375 6.390625 41.078125 11.03125 
Q 45.3125 15.671875 45.3125 23.6875 
L 45.3125 54.6875 
L 54.296875 54.6875 
L 54.296875 0 
L 45.3125 0 
L 45.3125 8.40625 
Q 42.046875 3.421875 37.71875 1 
Q 33.40625 -1.421875 27.6875 -1.421875 
Q 18.265625 -1.421875 13.375 4.4375 
Q 8.5 10.296875 8.5 21.578125 
z
M 31.109375 56 
z
" id="DejaVuSans-117"/>
     <path d="M 41.109375 46.296875 
Q 39.59375 47.171875 37.8125 47.578125 
Q 36.03125 48 33.890625 48 
Q 26.265625 48 22.1875 43.046875 
Q 18.109375 38.09375 18.109375 28.8125 
L 18.109375 0 
L 9.078125 0 
L 9.078125 54.6875 
L 18.109375 54.6875 
L 18.109375 46.1875 
Q 20.953125 51.171875 25.484375 53.578125 
Q 30.03125 56 36.53125 56 
Q 37.453125 56 38.578125 55.875 
Q 39.703125 55.765625 41.0625 55.515625 
z
" id="DejaVuSans-114"/>
     <path d="M 44.28125 53.078125 
L 44.28125 44.578125 
Q 40.484375 46.53125 36.375 47.5 
Q 32.28125 48.484375 27.875 48.484375 
Q 21.1875 48.484375 17.84375 46.4375 
Q 14.5 44.390625 14.5 40.28125 
Q 14.5 37.15625 16.890625 35.375 
Q 19.28125 33.59375 26.515625 31.984375 
L 29.59375 31.296875 
Q 39.15625 29.25 43.1875 25.515625 
Q 47.21875 21.78125 47.21875 15.09375 
Q 47.21875 7.46875 41.1875 3.015625 
Q 35.15625 -1.421875 24.609375 -1.421875 
Q 20.21875 -1.421875 15.453125 -0.5625 
Q 10.6875 0.296875 5.421875 2 
L 5.421875 11.28125 
Q 10.40625 8.6875 15.234375 7.390625 
Q 20.0625 6.109375 24.8125 6.109375 
Q 31.15625 6.109375 34.5625 8.28125 
Q 37.984375 10.453125 37.984375 14.40625 
Q 37.984375 18.0625 35.515625 20.015625 
Q 33.0625 21.96875 24.703125 23.78125 
L 21.578125 24.515625 
Q 13.234375 26.265625 9.515625 29.90625 
Q 5.8125 33.546875 5.8125 39.890625 
Q 5.8125 47.609375 11.28125 51.796875 
Q 16.75 56 26.8125 56 
Q 31.78125 56 36.171875 55.265625 
Q 40.578125 54.546875 44.28125 53.078125 
z
" id="DejaVuSans-115"/>
    </defs>
    <use xlink:href="#DejaVuSans-67"/>
    <use x="69.824219" xlink:href="#DejaVuSans-111"/>
    <use x="131.005859" xlink:href="#DejaVuSans-101"/>
    <use x="192.529297" xlink:href="#DejaVuSans-102"/>
    <use x="227.734375" xlink:href="#DejaVuSans-102"/>
    <use x="262.939453" xlink:href="#DejaVuSans-105"/>
    <use x="290.722656" xlink:href="#DejaVuSans-99"/>
    <use x="345.703125" xlink:href="#DejaVuSans-105"/>
    <use x="373.486328" xlink:href="#DejaVuSans-101"/>
    <use x="435.009766" xlink:href="#DejaVuSans-110"/>
    <use x="498.388672" xlink:href="#DejaVuSans-116"/>
    <use x="537.597656" xlink:href="#DejaVuSans-32"/>
    <use x="569.384766" xlink:href="#DejaVuSans-111"/>
    <use x="630.566406" xlink:href="#DejaVuSans-102"/>
    <use x="665.771484" xlink:href="#DejaVuSans-32"/>
    <use x="697.558594" xlink:href="#DejaVuSans-116"/>
    <use x="736.767578" xlink:href="#DejaVuSans-104"/>
    <use x="800.146484" xlink:href="#DejaVuSans-101"/>
    <use x="861.669922" xlink:href="#DejaVuSans-32"/>
    <use x="893.457031" xlink:href="#DejaVuSans-102"/>
    <use x="928.662109" xlink:href="#DejaVuSans-101"/>
    <use x="990.185547" xlink:href="#DejaVuSans-97"/>
    <use x="1051.464844" xlink:href="#DejaVuSans-116"/>
    <use x="1090.673828" xlink:href="#DejaVuSans-117"/>
    <use x="1154.052734" xlink:href="#DejaVuSans-114"/>
    <use x="1192.916016" xlink:href="#DejaVuSans-101"/>
    <use x="1254.439453" xlink:href="#DejaVuSans-115"/>
   </g>
  </g>
 </g>
 <defs>
  <clipPath id="p9b9547e624">
   <rect height="345.6" width="306.8975" x="105.90125" y="43.2"/>
  </clipPath>
 </defs>
</svg>
